<svg xmlns="http://www.w3.org/2000/svg" xmlns:xlink="http://www.w3.org/1999/xlink" viewBox="0 0 48 48" version="1.1">
    <g id="surface1">
        <path style=" fill:#455A64;" d="M 19 29 L 19 32 L 20 47 L 28 47 L 29 32 L 29 29 Z "></path>
        <path style=" fill:#2196F3;" d="M 16 22 L 19 24 L 19 31 L 29 31 L 29 24 L 32 22 C 32 17.582031 28.417969 14 24 14 C 19.582031 14 16 17.582031 16 22 "></path>
        <path style=" fill:#90CAF9;" d="M 25.980469 14.257813 C 25.914063 14.792969 25.585938 16 23.960938 16 C 22.335938 16 22.058594 14.796875 22.011719 14.261719 C 21.339844 14.433594 20.703125 14.683594 20.109375 15.011719 C 20.234375 15.574219 20.496094 16.242188 21.046875 16.828125 C 21.550781 17.363281 22.464844 18 23.960938 18 C 25.4375 18 26.355469 17.378906 26.867188 16.855469 C 27.453125 16.257813 27.734375 15.566406 27.871094 15.003906 C 27.285156 14.675781 26.648438 14.429688 25.980469 14.257813 Z "></path>
        <path style=" fill:#E3BBA1;" d="M 26 11 L 22 11 L 22 14 C 22 14 21.878906 16 23.960938 16 C 26.042969 16 26 14 26 14 Z "></path>
        <path style=" fill:#EBCFBD;" d="M 19 31 L 19 32 L 16 30 L 16 22 L 19 24 Z M 29 24 L 29 32 L 32 30 L 32 22 Z M 24 13 C 26.757813 13 29 10.757813 29 8 C 29 5.242188 26.757813 3 24 3 C 21.242188 3 19 5.242188 19 8 C 19 10.757813 21.242188 13 24 13 "></path>
        <path style=" fill:#424242;" d="M 23.78125 1 C 21.34375 1.21875 19 2.929688 19 6.574219 L 19 8 L 20 9 L 20 6 L 26.308594 3.800781 L 28 6 L 28 9 L 29 8 L 29 6.796875 C 29 4.382813 28.863281 2.59375 26 2 L 25.515625 1 Z "></path>
        <path style=" fill:#263238;" d="M 23 47 L 24 32 L 25 47 Z "></path>
    </g>
</svg>
